<?xml version="1.0" encoding="UTF-8" standalone="no"?>
<!-- Created with Inkscape (http://www.inkscape.org/) -->

<svg
   xmlns:dc="http://purl.org/dc/elements/1.1/"
   xmlns:cc="http://creativecommons.org/ns#"
   xmlns:rdf="http://www.w3.org/1999/02/22-rdf-syntax-ns#"
   xmlns:svg="http://www.w3.org/2000/svg"
   xmlns="http://www.w3.org/2000/svg"
   xmlns:xlink="http://www.w3.org/1999/xlink"
   xmlns:sodipodi="http://sodipodi.sourceforge.net/DTD/sodipodi-0.dtd"
   xmlns:inkscape="http://www.inkscape.org/namespaces/inkscape"
   id="svg3116"
   version="1.1"
   inkscape:version="0.48.4 r9939"
   width="200"
   height="200"
   sodipodi:docname="logo FEL vectoriel.svg">
  <metadata
     id="metadata3122">
    <rdf:RDF>
      <cc:Work
         rdf:about="">
        <dc:format>image/svg+xml</dc:format>
        <dc:type
           rdf:resource="http://purl.org/dc/dcmitype/StillImage" />
        <dc:title />
      </cc:Work>
    </rdf:RDF>
  </metadata>
  <defs
     id="defs3120" />
  <sodipodi:namedview
     pagecolor="#ffffff"
     bordercolor="#666666"
     borderopacity="1"
     objecttolerance="10"
     gridtolerance="10"
     guidetolerance="10"
     inkscape:pageopacity="0"
     inkscape:pageshadow="2"
     inkscape:window-width="1600"
     inkscape:window-height="879"
     id="namedview3118"
     showgrid="false"
     inkscape:zoom="8"
     inkscape:cx="132.88213"
     inkscape:cy="128.43455"
     inkscape:window-x="0"
     inkscape:window-y="21"
     inkscape:window-maximized="1"
     inkscape:current-layer="layer6" />
  <g
     inkscape:groupmode="layer"
     id="layer1"
     inkscape:label="Background Circles"
     style="display:inline">
    <path
       sodipodi:type="arc"
       style="fill:#4e5c9b;fill-opacity:1"
       id="cercleLight"
       sodipodi:cx="94.067795"
       sodipodi:cy="109.74577"
       sodipodi:rx="94.067795"
       sodipodi:ry="108.89831"
       d="m 188.13559,109.74577 a 94.067795,108.89831 0 1 1 -188.13559,0 94.067795,108.89831 0 1 1 188.13559,0 z"
       transform="matrix(1.0630631,0,0,0.91828791,0,-0.77821735)" />
    <path
       sodipodi:type="arc"
       style="fill:#1b2666;fill-opacity:1"
       id="cercleDark"
       sodipodi:cx="100.52302"
       sodipodi:cy="95.881523"
       sodipodi:rx="68.163895"
       sodipodi:ry="71.759354"
       d="m 168.68691,95.881523 a 68.163895,71.759354 0 1 1 -0.003,-0.664712"
       sodipodi:start="0"
       sodipodi:end="6.2739221"
       sodipodi:open="true"
       transform="matrix(1.2469945,0,0,1.1845146,-25.351648,-13.573061)" />
  </g>
  <g
     inkscape:groupmode="layer"
     id="layer5"
     inkscape:label="Rhone"
     style="display:inline">
    <path
       style="fill:#4e5c9b;fill-opacity:1;stroke:none"
       d="M 76.25,188.5 75,179 l 11,-31.5 19.75,-38.75 7.75,-33 -11.25,-9.25 -7.25,26 -8.5,27.25 -4.75,-19.5 -3,-9.5 9.25,-14 c 0,0 -1.5,-12 -2.75,-12.75 C 84,63.25 83,51 83,51 L 78.75,31.75 66.75,24.25 65,13.75 47.5,22 l 9.25,13 10.75,7 3,18.25 -2.25,16.75 -2.5,25 4.75,16.25 c 0,0 2.25,20.75 2,21.75 -0.25,1 -4.5,19 -4.5,20 0,1 -6.25,13.5 -6.25,13.5 l -1.5,7.5 5,8 z"
       id="water"
       inkscape:connector-curvature="0" />
    <path
       style="fill:#ffffff;fill-opacity:1;stroke:#ffffff;stroke-width:1;stroke-linecap:butt;stroke-linejoin:round;stroke-miterlimit:4;stroke-opacity:1;stroke-dasharray:none"
       d="m 56.628467,25.213164 c -10.138042,3.316067 -4.055373,14.837524 -6.179694,19.99487 -1.105403,2.320785 -4.355487,4.531344 -6.067336,6.55422 -1.499984,6.948724 -7.731199,7.668615 -13.295705,10.336943 -4.04397,1.93919 -11.160901,4.419417 -11.160901,4.419417 -4.178795,3.640626 -8.932601,3.518222 -10.7114694,10.861279 1.8914954,5.994761 0.6308741,9.996936 4.2696064,14.756361 2.739868,6.032817 13.183347,20.524076 13.183347,20.524076 2.722752,3.69127 1.832771,6.88175 0.898865,9.28826 0.339485,2.63123 1.451151,4.41383 4.300633,5.08605 3.210909,0.17586 6.183078,-2.68643 9.138457,-2.76398 2.495864,1.11851 4.044785,1.63099 5.13212,3.71425 -0.703532,4.26728 -0.768329,2.45983 -4.533458,4.35478 0.484871,8.14495 3.843968,16.01678 4.988221,22.26765 0.5349,10.68291 -0.573149,17.35118 0.338801,20.90406 0.911949,3.55287 3.843898,3.99035 11.458792,6.21169 8.12088,-1.50667 8.911755,-4.33869 10.674016,-10.18713 3.607499,-8.50609 7.020655,-19.00657 8.089781,-27.26556 0.07932,-9.74284 0.01036,-17.41896 -0.625,-26.3667 l -1.921785,-14.08221 c -4.394929,-2.50583 -5.33569,-5.286618 -5.243377,-10.936183 0.292934,-8.59962 3.71157,-10.040839 7.640349,-13.9324 C 76.852924,69.889356 73.706898,67.042951 73.257466,61.425048 73.907775,54.10544 74.101072,46.370574 72.287214,40.354795 60.830989,35.294769 60.801419,25.867 56.628467,25.213164 z"
       id="weast"
       inkscape:connector-curvature="0"
       sodipodi:nodetypes="cccsccccccccccscccccccccc" />
    <path
       style="fill:#ffffff;fill-opacity:1;stroke:#ffffff;stroke-width:1;stroke-linecap:butt;stroke-linejoin:round;stroke-miterlimit:4;stroke-opacity:1;stroke-dasharray:none"
       d="m 63.118718,22.370558 c -0.569071,1.705337 0.130511,3.238656 0.130511,3.238656 1.56157,3.260172 4.912692,4.380701 8.151082,6.784145 6.541982,4.397207 10.297994,9.090405 7.787189,17.044141 -1.437697,6.094399 -2.699237,8.705888 0.4375,13.8125 l 4.875,10.5 -2.75,9.625 -4.375,2.25 c -3.490008,2.620643 -5.487012,8.643569 -2.25,11.875 l 4.625,11.75 0.5,11.5 c 0.17316,4.94604 0.953176,6.63528 3.625,7.8125 3.050266,-1.15928 5.546519,-3.32625 7,-6.3125 l 2.75,-7.625 3.25,-8.625 1.5625,-7.8125 0.6875,-6.4375 0.75,-4.875 3.75,-12.5 1.375,-5 1.75,-8.75 c 0.64445,-1.403495 0.92875,-3.225893 1.125,-6.25 C 104.84058,40.335206 102.10158,36.453387 96.5625,34.75 93.355596,33.126439 92.961192,32.252878 92.379288,29.566817 90.601592,19.410046 84.582878,16.876255 79.1875,16.375 72.653898,16.841675 66.875289,19.165221 63.118718,22.370558 z"
       id="north"
       inkscape:connector-curvature="0"
       sodipodi:nodetypes="cccccccccccccccccccccccccc" />
    <path
       style="fill:#ffffff;fill-opacity:1;stroke:#ffffff;stroke-width:1px;stroke-linecap:butt;stroke-linejoin:miter;stroke-opacity:1"
       d="m 77.958523,184.26687 c 1.898063,-0.35061 3.814837,-2.39339 5.008496,-5.16063 1.193659,-2.76724 1.664203,-6.25894 1.553688,-8.44673 2.338265,-0.29617 3.384847,-0.80188 3.895415,-1.68835 0.510568,-0.88648 0.485122,-2.15371 0.679333,-3.97295 3.681933,-0.48426 6.270347,-0.57353 9.675383,-0.88392 0.439996,8.55828 2.422182,9.82013 5.880962,10.6066 6.31154,-1.00027 7.22387,-5.43614 11.49049,-6.16129 4.89902,1.35086 6.52571,6.41846 10.78338,6.95679 7.37935,-1.4695 4.50193,-6.55449 7.50412,-14.88325 11.14297,-6.2491 12.28444,-12.70572 13.39214,-20.53459 -0.61432,-8.6303 -3.22604,-6.61444 -6.78446,-11.13954 0.54051,-7.67082 4.80388,-11.90119 9.04594,-16.81707 l 16.79379,-3.0052 2.20971,-3.27037 c 0.98602,-4.34191 -0.471,-10.237769 0.22885,-12.598563 0.25371,-0.855846 1.43429,-1.005886 1.50144,-2.298862 0.0869,-1.6731 -0.44753,-4.689672 -0.3172,-7.210102 0.65842,-3.9233 4.50733,-5.824677 3.6875,-9.383883 -1.15111,-3.243887 -2.14267,-2.750884 -5,-4.25 C 166.45939,69.715196 164.23238,69.645463 161,70 l -11.375,-0.0625 -6.4375,0.125 C 137.676,64.356047 135.61407,58.798922 124.47151,66.616117 L 113.125,71.1875 108.6875,76.125 c -2.96959,2.874633 -2.06265,6.687385 -4.9375,9.75 l -2.125,11 c -0.0192,3.52395 0.61168,7.07211 -1.0625,10.625 L 98,118.3125 c -3.158423,7.96144 -6.851816,10.40403 -13.1875,15.25 -4.876964,10.88716 -4.532599,18.41344 -9.96967,30.32322 -2.789823,5.88345 -5.530529,19.12582 3.115693,20.38115 z"
       id="east"
       inkscape:connector-curvature="0"
       sodipodi:nodetypes="cscscccccccccccsscccccccccccccccc" />
  </g>
  <g
     inkscape:groupmode="layer"
     id="layer3"
     inkscape:label="Logo FEL"
     style="display:inline">
    <path
       sodipodi:nodetypes="cccccccccccccccccccccccccc"
       inkscape:connector-curvature="0"
       id="shadow"
       d="m 11,122.19849 13.105579,0 5.040709,-23.409038 14.315615,0 1.613027,-8.142272 -13.912358,0 2.016284,-12.213409 48.390811,0 -9.073277,43.764719 120.97703,0 3.02443,-13.2312 -43.3501,0 10.08141,-50.007459 -7.73081,-4.509662 -9.4076,4.509662 -10.08142,50.007459 -47.38267,0 2.016284,-10.177838 14.113986,0 1.31059,-8.142272 -13.710735,0 2.419541,-12.213409 32.159734,0 3.02442,-14.248977 -106.863043,0 z"
       style="fill:#000000;fill-opacity:1;stroke:none" />
    <path
       style="fill:#e31a24;fill-opacity:1;stroke:none"
       d="M 10.000264,119 23,119 l 5,-23 14.2,0 1.6,-8 -13.8,0 2,-12 48,0 -9,43 120,0 3,-13 -43,0 10,-50.2005 -7.342,-5.639 L 144,55.7995 134,106 l -47,0 2,-10 14,0 1.3,-8 -13.6,0 2.4,-12 31.9,0 3,-14 -106,0 z"
       id="main"
       inkscape:connector-curvature="0"
       sodipodi:nodetypes="cccccccccccccccccccccccccc" />
  </g>
  <g
     inkscape:groupmode="layer"
     id="layer6"
     inkscape:label="Tour"
     style="display:inline">
    <path
       style="fill:none;stroke:#ffffff;stroke-width:1.5;stroke-linecap:round;stroke-linejoin:miter;stroke-miterlimit:4;stroke-opacity:1;stroke-dasharray:none"
       d="m 151.725,84.625 5.68661,-28.31066"
       id="vertical"
       inkscape:connector-curvature="0"
       sodipodi:nodetypes="cc" />
    <path
       style="fill:none;stroke:#ffffff;stroke-width:1.5;stroke-linecap:round;stroke-linejoin:miter;stroke-miterlimit:3.91111112;stroke-opacity:1;stroke-dasharray:none"
       d="m 144.67756,56.25898 c 6.35888,-1.207705 11.88004,-1.121235 15.43775,0.08779 l 0,0"
       id="horizontal1"
       inkscape:connector-curvature="0"
       sodipodi:nodetypes="ccc" />
    <path
       sodipodi:nodetypes="ccc"
       inkscape:connector-curvature="0"
       id="horizontal2"
       d="m 144.17377,58.859072 c 6.35553,-1.207989 11.87376,-1.121498 15.4296,0.08781 l 0,0"
       style="fill:none;stroke:#ffffff;stroke-width:1.5;stroke-linecap:round;stroke-linejoin:round;stroke-miterlimit:3.91111112;stroke-opacity:1;stroke-dasharray:none" />
    <path
       style="fill:none;stroke:#ffffff;stroke-width:1.5;stroke-linecap:round;stroke-linejoin:miter;stroke-miterlimit:3.91111112;stroke-opacity:1;stroke-dasharray:none"
       d="m 143.64653,61.458985 c 6.3587,-1.207721 11.87969,-1.121249 15.43731,0.0878 l 0,0"
       id="horizontal3"
       inkscape:connector-curvature="0"
       sodipodi:nodetypes="ccc" />
    <path
       style="fill:none;stroke:#ffffff;stroke-width:1.5;stroke-linecap:round;stroke-linejoin:round;stroke-miterlimit:3.91111112;stroke-opacity:1;stroke-dasharray:none"
       d="m 143.10529,64.158937 c 6.36051,-1.207572 11.88305,-1.12111 15.44165,0.08779 l 0,0"
       id="horizontal4"
       inkscape:connector-curvature="0"
       sodipodi:nodetypes="ccc" />
    <path
       sodipodi:nodetypes="ccc"
       inkscape:connector-curvature="0"
       id="horizontal5"
       d="m 142.56993,66.80757 c 6.36529,-1.20717 11.892,-1.120737 15.45328,0.08775 l 0,0"
       style="fill:none;stroke:#ffffff;stroke-width:1.5;stroke-linecap:round;stroke-linejoin:round;stroke-miterlimit:3.91111112;stroke-opacity:1;stroke-dasharray:none" />
    <path
       style="fill:none;stroke:#ffffff;stroke-width:1.5;stroke-linecap:round;stroke-linejoin:round;stroke-miterlimit:3.91111112;stroke-opacity:1;stroke-dasharray:none"
       d="m 142.05762,69.459363 c 6.36,-1.207615 11.88212,-1.121149 15.44046,0.08778 l 0,0"
       id="horizontal6"
       inkscape:connector-curvature="0"
       sodipodi:nodetypes="ccc" />
    <path
       sodipodi:nodetypes="ccc"
       inkscape:connector-curvature="0"
       id="horizontal7"
       d="m 141.52991,72.034196 c 6.36157,-1.207484 11.88504,-1.121029 15.44425,0.08779 l 0,0"
       style="fill:none;stroke:#ffffff;stroke-width:1.5;stroke-linecap:round;stroke-linejoin:round;stroke-miterlimit:3.91111112;stroke-opacity:1;stroke-dasharray:none" />
    <path
       style="fill:none;stroke:#ffffff;stroke-width:1.5;stroke-linecap:round;stroke-linejoin:round;stroke-miterlimit:3.91111112;stroke-opacity:1;stroke-dasharray:none"
       d="m 141.0273,74.574204 c 6.36265,-1.207391 11.88705,-1.120944 15.44686,0.08777 l 0,0"
       id="horizontal8"
       inkscape:connector-curvature="0"
       sodipodi:nodetypes="ccc" />
    <path
       sodipodi:nodetypes="ccc"
       inkscape:connector-curvature="0"
       id="horizontal9"
       d="m 140.52904,77.072357 c 6.36058,-1.207565 11.88319,-1.121104 15.44185,0.08778 l 0,0"
       style="fill:none;stroke:#ffffff;stroke-width:1.5;stroke-linecap:round;stroke-linejoin:round;stroke-miterlimit:3.91111112;stroke-opacity:1;stroke-dasharray:none" />
  </g>
  <g
     inkscape:groupmode="layer"
     id="layer4"
     inkscape:label="Subtitle"
     style="display:inline">
    <text
       xml:space="preserve"
       style="font-size:14px;font-style:normal;font-weight:normal;line-height:100%;letter-spacing:-0.05px;word-spacing:0px;fill:#000000;fill-opacity:1;stroke:none;font-family:Sans"
       x="97.318527"
       y="144.33899"
       id="text"
       sodipodi:linespacing="100%"><tspan
         sodipodi:role="line"
         id="tspan3770"
         x="97.393524"
         y="144.33899"
         style="font-size:16px;font-style:italic;font-variant:normal;font-weight:normal;font-stretch:normal;text-align:center;line-height:100%;letter-spacing:0.15000001px;text-anchor:middle;font-family:Droid Sans;-inkscape-font-specification:Droid Sans Italic"
         dx="0">FÉDÉRATION</tspan><tspan
         sodipodi:role="line"
         x="97.393532"
         y="160.33899"
         id="tspan3772"
         style="font-size:16px;font-style:italic;font-variant:normal;font-weight:normal;font-stretch:normal;text-align:center;line-height:100%;letter-spacing:0.15000001px;text-anchor:middle;font-family:Droid Sans;-inkscape-font-specification:Droid Sans Italic">DES ÉTUDIANTS LYONNAIS</tspan></text>
  </g>
  <g
     inkscape:groupmode="layer"
     id="layer2"
     inkscape:label="Base"
     style="display:none">
    <image
       width="200"
       height="200"
       xlink:href="file:///home/jitrixis/T%C3%A9l%C3%A9chargements/252398_117272911692905_7488101_n%20(1).jpg"
       id="image3124"
       x="0"
       y="0" />
  </g>
</svg>
